<svg xmlns="http://www.w3.org/2000/svg" viewBox="0 0 174.16 54.67"><defs><style>.cls-1{font-size:27.33px;font-family:CenturyGothic-Bold, Century Gothic;font-weight:700;}.cls-2{fill:none;}</style></defs><title>black-logo</title><g id="Capa_2" data-name="Capa 2"><g id="Capa_3" data-name="Capa 3"><text class="cls-1" transform="translate(65.37 35.75)">Dreams!</text><path d="M36.33,40a1.15,1.15,0,0,0-.2,1.14,1,1,0,0,0,.6.69,1.07,1.07,0,0,0,.41.06l-.2-.06a1.43,1.43,0,0,0,1.14-.25q1-1.08-.27-2.4A2.41,2.41,0,0,0,36.33,40Z"/><path d="M21.39,13.44h-.07a3.6,3.6,0,0,0,0-.89,7.65,7.65,0,0,0-.44-1.64,3.43,3.43,0,0,0-1.21-1.7A1.53,1.53,0,0,0,19,9a2.56,2.56,0,0,0-2.35.75c-.05.09-.13.21-.24.38a4.39,4.39,0,0,0-.37,1.11,5.89,5.89,0,0,0-.13,1.8,11.11,11.11,0,0,0,1.71,4.51,12.17,12.17,0,0,0,3.67,3.75h.07Z"/><path d="M21.19,30a7.36,7.36,0,0,0-1-1.95,3.11,3.11,0,0,0-.47-.38,2.13,2.13,0,0,0-2.69.12,9.88,9.88,0,0,0-2,6.63,14.4,14.4,0,0,0,.68,4.33,2.84,2.84,0,0,0,2.15,2.05,2.54,2.54,0,0,0,1.41-.38,4.66,4.66,0,0,0,1.28-1.52,6,6,0,0,0,.64-1.76,18.49,18.49,0,0,0,.24-2.34c0-.55,0-1.58-.07-3.09A15.59,15.59,0,0,0,21.19,30Z"/><path d="M27.33,0A27.34,27.34,0,1,0,54.67,27.33,27.34,27.34,0,0,0,27.33,0ZM38.82,5.42a8.44,8.44,0,0,1,3.34-.5,6.9,6.9,0,0,0,5.92,12.4,7,7,0,0,0,1.73-.92,8.58,8.58,0,1,1-11-11Zm9.36,27.84q-1.08,3.21-5.52,4.86a2.07,2.07,0,0,1,.06.5q.35,2.66-2.49,4.29a5.37,5.37,0,0,1-2.82.76,3.45,3.45,0,0,1-1.35-.25,2.62,2.62,0,0,1-1.71-1.86,2.87,2.87,0,0,1,.5-2.56,3.4,3.4,0,0,1,1.48-1.14c-.72-.54-1.24-1-1.58-1.26s-.55-.51-.92-.88a20.41,20.41,0,0,1-2.58,5q-2,2.81-4.34,2.8h-.47l-1-.12A3.89,3.89,0,0,1,24.38,43a3,3,0,0,1-1.14-1.14,9.29,9.29,0,0,1-.91-2.08,10.46,10.46,0,0,1-.94,1.2,8.73,8.73,0,0,1-2.22,1.7,6.28,6.28,0,0,1-2.83.76H16a5.56,5.56,0,0,1-1.68-.25,4.79,4.79,0,0,1-2-1.14q-2.76-2.46-2.62-7.63.2-7.26,4.24-9.41a6.24,6.24,0,0,1,4.64-.5,7.76,7.76,0,0,1,1.75.75,8.89,8.89,0,0,1,1.08.76V23.28h-.07a13.77,13.77,0,0,1-5.85-6.06c-1.35-2.65-1.75-5-1.22-7.07a4.86,4.86,0,0,1,1.92-2.84,6.08,6.08,0,0,1,3.54-1h.13a15.62,15.62,0,0,1,1.82.26l.17,0a.56.56,0,0,1,.17.09,5.41,5.41,0,0,1,2.69,1.9,11,11,0,0,1,2,6.18,1.78,1.78,0,0,1,.06.51V40c.18.59.47.92.88,1a1.9,1.9,0,0,0,1.61-.57,15.33,15.33,0,0,0,3.25-6.31,4.67,4.67,0,0,1-.32-.63,7,7,0,0,1-.44-2,7,7,0,0,1,.41-2.81,4.8,4.8,0,0,1,1.31-2A8.85,8.85,0,0,1,35,25.62a6.62,6.62,0,0,1,1.45-.57,4.92,4.92,0,0,1,1.34-.31,5,5,0,0,1,3.77,1.32,3.44,3.44,0,0,1,1.08,3,.7.7,0,0,1-.31.6,1.09,1.09,0,0,1-.63.22,1.72,1.72,0,0,1-.48-.19.91.91,0,0,1-.3-.32.87.87,0,0,1-.1-.44,1.85,1.85,0,0,0-.61-1.7,1.63,1.63,0,0,0-.67-.45,1.59,1.59,0,0,0-1.21,0,2.6,2.6,0,0,0-1.48,2.34,6.79,6.79,0,0,0,.23,2.68A6.54,6.54,0,0,0,39,34.27c.45.29.85.56,1.21.82a7.05,7.05,0,0,1,1.62,1.45q3.76-1.34,4.58-3.79a.8.8,0,0,1,1.11-.57A.81.81,0,0,1,48.18,33.26Z"/><path class="cls-2" d="M32.51,34.08a15.33,15.33,0,0,1-3.25,6.31,1.9,1.9,0,0,1-1.61.57c-.41-.09-.7-.42-.88-1V15.27a1.78,1.78,0,0,0-.06-.51,11,11,0,0,0-2-6.18A5.41,5.41,0,0,0,22,6.68a.56.56,0,0,0-.17-.09l-.17,0a15.62,15.62,0,0,0-1.82-.26h-.13a6.08,6.08,0,0,0-3.54,1,4.86,4.86,0,0,0-1.92,2.84c-.53,2.07-.13,4.42,1.22,7.07a13.77,13.77,0,0,0,5.85,6.06h.07v2.78a8.89,8.89,0,0,0-1.08-.76,7.76,7.76,0,0,0-1.75-.75,6.24,6.24,0,0,0-4.64.5q-4,2.14-4.24,9.41-.13,5.17,2.62,7.63a4.79,4.79,0,0,0,2,1.14,5.56,5.56,0,0,0,1.68.25h.34a6.28,6.28,0,0,0,2.83-.76A8.73,8.73,0,0,0,21.39,41a10.46,10.46,0,0,0,.94-1.2,9.29,9.29,0,0,0,.91,2.08A3,3,0,0,0,24.38,43a3.89,3.89,0,0,0,1.05.38l1,.12h.47q2.36,0,4.34-2.8a20.41,20.41,0,0,0,2.58-5l-.43-.44A6,6,0,0,1,32.51,34.08ZM21.32,21.26a12.17,12.17,0,0,1-3.67-3.75A11.11,11.11,0,0,1,15.94,13a5.89,5.89,0,0,1,.13-1.8,4.39,4.39,0,0,1,.37-1.11c.11-.17.19-.29.24-.38A2.56,2.56,0,0,1,19,9a1.53,1.53,0,0,1,.68.25,3.43,3.43,0,0,1,1.21,1.7,7.65,7.65,0,0,1,.44,1.64,3.6,3.6,0,0,1,0,.89h.07v7.82Zm-.1,15.85a6,6,0,0,1-.64,1.76,4.66,4.66,0,0,1-1.28,1.52,2.54,2.54,0,0,1-1.41.38,2.84,2.84,0,0,1-2.15-2.05,14.4,14.4,0,0,1-.68-4.33,9.88,9.88,0,0,1,2-6.63,2.13,2.13,0,0,1,2.69-.12,3.11,3.11,0,0,1,.47.38,7.36,7.36,0,0,1,1,1.95,15.59,15.59,0,0,1,.2,1.71c0,1.51.07,2.54.07,3.09A18.49,18.49,0,0,1,21.22,37.11Z"/><path class="cls-2" d="M47.54,32.18a.8.8,0,0,0-1.11.57q-.81,2.46-4.58,3.79a7.05,7.05,0,0,0-1.62-1.45c-.36-.26-.76-.53-1.21-.82a6.54,6.54,0,0,1-1.92-2.5,6.79,6.79,0,0,1-.23-2.68,2.6,2.6,0,0,1,1.48-2.34,1.59,1.59,0,0,1,1.21,0,1.63,1.63,0,0,1,.67.45,1.85,1.85,0,0,1,.61,1.7.87.87,0,0,0,.1.44.91.91,0,0,0,.3.32,1.72,1.72,0,0,0,.48.19,1.09,1.09,0,0,0,.63-.22.7.7,0,0,0,.31-.6,3.44,3.44,0,0,0-1.08-3,5,5,0,0,0-3.77-1.32,4.92,4.92,0,0,0-1.34.31,6.62,6.62,0,0,0-1.45.57,8.85,8.85,0,0,0-1.55,1.1,4.8,4.8,0,0,0-1.31,2,7,7,0,0,0-.41,2.81,7,7,0,0,0,.44,2,4.67,4.67,0,0,0,.32.63,1.33,1.33,0,0,1,.05-.19,2.71,2.71,0,0,0,.14-.63.81.81,0,0,1,1.14-.57c.58.12.81.46.67,1-.09.29-.2.61-.33.94s-.22.73-.35,1.08c.37.37.67.67.92.88s.86.72,1.58,1.26A3.4,3.4,0,0,0,34.85,39a2.87,2.87,0,0,0-.5,2.56,2.62,2.62,0,0,0,1.71,1.86,3.45,3.45,0,0,0,1.35.25,5.37,5.37,0,0,0,2.82-.76q2.84-1.63,2.49-4.29a2.07,2.07,0,0,0-.06-.5q4.44-1.65,5.52-4.86A.81.81,0,0,0,47.54,32.18Zm-9.46,9.41a1.43,1.43,0,0,1-1.14.25l.2.06a1.07,1.07,0,0,1-.41-.06,1,1,0,0,1-.6-.69,1.15,1.15,0,0,1,.2-1.14,2.41,2.41,0,0,1,1.48-.82Q39.08,40.51,38.08,41.59Z"/><path class="cls-2" d="M34.51,33.7c.14-.55-.09-.89-.67-1a.81.81,0,0,0-1.14.57,2.71,2.71,0,0,1-.14.63,1.33,1.33,0,0,0-.05.19,6,6,0,0,0,.89,1.2l.43.44c.13-.35.24-.71.35-1.08S34.42,34,34.51,33.7Z"/><path class="cls-2" d="M44.64,21.57a8.59,8.59,0,0,0,5.17-5.17,7,7,0,0,1-1.73.92,6.9,6.9,0,0,1-5.92-12.4,8.44,8.44,0,0,0-3.34.5,8.58,8.58,0,0,0,5.82,16.15Z"/></g></g></svg>