<svg id="Capa_1" data-name="Capa 1" xmlns="http://www.w3.org/2000/svg" viewBox="0 0 1199.54 597.88"><defs><style>.cls-1{fill:#ffd22f;}.cls-2{fill:#f64a44;}.cls-3{fill:#f77a77;}.cls-4{fill:#b78bea;}.cls-5{fill:#c293f9;}.cls-6{fill:#ff7b62;}.cls-7{fill:#5f6ffd;}.cls-8{fill:#f7c6bf;}.cls-9{fill:#7923cc;}.cls-10{fill:#79ceec;}.cls-11{fill:#001a45;}.cls-12{fill:#fff;}.cls-13{fill:#f35337;}</style></defs><title>fondo-header</title><circle class="cls-1" cx="119.02" cy="120.53" r="79.67"/><ellipse class="cls-2" cx="158.18" cy="333.16" rx="37.38" ry="121.66" transform="translate(-253.59 144.81) rotate(-68.41)"/><path class="cls-1" d="M162.3,331.45,99,304.45A10.07,10.07,0,0,1,94.28,290c20.12-32.91,62.21-47.31,98.75-32,36.74,15.36,56,55.78,46.42,93.35A10.09,10.09,0,0,1,225.77,358Z" transform="translate(-43.78 -212.85)"/><path class="cls-3" d="M1177.14,676.52a64.61,64.61,0,0,1,64.61-64.61l1.15,0a80.65,80.65,0,1,0,0,129.16l-1.15,0A64.61,64.61,0,0,1,1177.14,676.52Z" transform="translate(-43.78 -212.85)"/><path class="cls-4" d="M280,662.13c-37.28,0-37.28,37.28-37.28,37.28s0-37.28-37.28-37.28c37.28,0,37.28-37.28,37.28-37.28S242.7,662.13,280,662.13Z" transform="translate(-43.78 -212.85)"/><path class="cls-5" d="M1165.16,318.72c-31.33,0-31.33,31.33-31.33,31.33s0-31.33-31.33-31.33c31.33,0,31.33-31.33,31.33-31.33S1133.83,318.72,1165.16,318.72Z" transform="translate(-43.78 -212.85)"/><circle class="cls-6" cx="44.83" cy="504.88" r="44.83"/><circle class="cls-1" cx="647.64" cy="41.97" r="30.34"/><circle class="cls-6" cx="669.41" cy="67.37" r="13.75"/><path class="cls-7" d="M1048.3,761.23c-46.38,1.19-47.57,47.57-47.57,47.57s1.19-46.38-45.19-45.19c46.38-1.19,47.57-47.57,47.57-47.57S1001.92,762.42,1048.3,761.23Z" transform="translate(-43.78 -212.85)"/><path class="cls-7" d="M434,278.91c-40.81,1-41.86,41.86-41.86,41.86S393.2,280,352.38,281c40.82-1,41.86-41.86,41.86-41.86S393.2,280,434,278.91Z" transform="translate(-43.78 -212.85)"/><ellipse class="cls-8" cx="613.51" cy="555.73" rx="15.17" ry="14.85"/><ellipse class="cls-9" cx="507.53" cy="119.12" rx="12.93" ry="12.66"/><ellipse class="cls-10" cx="1184.35" cy="296.08" rx="12.67" ry="12.4"/><ellipse class="cls-7" cx="34.9" cy="331.88" rx="17.81" ry="17.43"/><path class="cls-11" d="M489.7,663.49a1.43,1.43,0,0,0,0-2.85,1.43,1.43,0,0,0,0,2.85Z" transform="translate(-43.78 -212.85)"/><path class="cls-11" d="M517.43,581.72a1.22,1.22,0,0,0,0-2.43,1.22,1.22,0,0,0,0,2.43Z" transform="translate(-43.78 -212.85)"/><path class="cls-12" d="M59.64,463.42c4.31,0,4.32-6.69,0-6.69s-4.31,6.69,0,6.69Z" transform="translate(-43.78 -212.85)"/><path class="cls-13" d="M1003.34,259.23a96.25,96.25,0,0,1,30.39-9l-1-7A46.81,46.81,0,0,0,1009.9,260a3.59,3.59,0,0,0,.56,4.32,3.72,3.72,0,0,0,4.33.56,11.64,11.64,0,0,1,8-.65l-1.58-6a68.84,68.84,0,0,1-11,11c-1.51,1.2-1.26,3.8,0,5.05,1.49,1.49,3.53,1.2,5,0a69.26,69.26,0,0,0,11-11c1.61-2,1.24-5.21-1.58-6a19.27,19.27,0,0,0-13.51,1.37l4.89,4.88a38.7,38.7,0,0,1,13.28-11.23,32.46,32.46,0,0,1,5.33-2.25,3.6,3.6,0,0,0,2.56-3.92c-.24-1.58-1.72-3.31-3.51-3.1a105.51,105.51,0,0,0-34,9.94,3.57,3.57,0,1,0,3.6,6.16Z" transform="translate(-43.78 -212.85)"/><path class="cls-10" d="M336.58,772.21a152.36,152.36,0,0,0,33-29c1.43-1.69,1.78-4.36,0-6a4.31,4.31,0,0,0-6,0L331,770c-3.07,3.07.06,8.06,4.13,7.1A104.12,104.12,0,0,0,366,764.22a4.3,4.3,0,0,0,1.52-5.81c-1.37-2.13-3.61-2.46-5.81-1.52A76.67,76.67,0,0,0,339,772c-2.71,2.59-.61,7.21,3,7.25a102.34,102.34,0,0,0,29.12-3.88,4.25,4.25,0,1,0-2.26-8.19A90.61,90.61,0,0,1,342,770.75l3,7.25a69.24,69.24,0,0,1,21-13.78l-4.29-7.33c-2.27,1.41-4.58,2.74-7,4-1.19.62-2.38,1.21-3.6,1.77-.6.29-1.21.56-1.82.83l-.82.36c-.75.33.91-.37-.42.18a101.75,101.75,0,0,1-15.24,4.91L337,776q16.32-16.38,32.63-32.78l-6-6a149.22,149.22,0,0,1-14.87,15.2c-1.31,1.16-2.65,2.3-4,3.41l-2.05,1.66-1.57,1.22q-4.27,3.24-8.79,6.18a4.25,4.25,0,1,0,4.29,7.33Z" transform="translate(-43.78 -212.85)"/><path class="cls-12" d="M223.6,217a1.22,1.22,0,0,0,0-2.43,1.22,1.22,0,0,0,0,2.43Z" transform="translate(-43.78 -212.85)"/><path class="cls-12" d="M264.77,228.11a3.65,3.65,0,1,0-3.64-3.65,3.71,3.71,0,0,0,3.64,3.65Z" transform="translate(-43.78 -212.85)"/><path class="cls-12" d="M204.93,511.12c3.13,0,3.13-4.86,0-4.86s-3.13,4.86,0,4.86Z" transform="translate(-43.78 -212.85)"/><path class="cls-12" d="M182,810.7c3.65,0,3.65-5.66,0-5.66s-3.64,5.66,0,5.66Z" transform="translate(-43.78 -212.85)"/><path class="cls-12" d="M715.84,217.7c3.12,0,3.13-4.85,0-4.85s-3.13,4.85,0,4.85Z" transform="translate(-43.78 -212.85)"/><path class="cls-12" d="M783.15,810.73c3.67,0,3.68-5.7,0-5.7s-3.67,5.7,0,5.7Z" transform="translate(-43.78 -212.85)"/><path class="cls-12" d="M1113.28,504.07c2.82,0,2.82-4.38,0-4.38s-2.83,4.38,0,4.38Z" transform="translate(-43.78 -212.85)"/><path class="cls-12" d="M1241,366.78c3.06,0,3.06-4.75,0-4.75s-3.07,4.75,0,4.75Z" transform="translate(-43.78 -212.85)"/><path class="cls-12" d="M890.46,261.57c3.13,0,3.13-4.86,0-4.86s-3.13,4.86,0,4.86Z" transform="translate(-43.78 -212.85)"/><path class="cls-12" d="M1224.61,248.83c3.06,0,3.07-4.76,0-4.76s-3.07,4.76,0,4.76Z" transform="translate(-43.78 -212.85)"/><path class="cls-12" d="M898.7,744.57a4.28,4.28,0,1,0-4.28-4.28,4.33,4.33,0,0,0,4.28,4.28Z" transform="translate(-43.78 -212.85)"/><path class="cls-12" d="M536.52,788a4.28,4.28,0,1,0-4.27-4.28,4.32,4.32,0,0,0,4.27,4.28Z" transform="translate(-43.78 -212.85)"/><path class="cls-12" d="M1101.44,786.52c4.23,0,4.24-6.58,0-6.58s-4.24,6.58,0,6.58Z" transform="translate(-43.78 -212.85)"/></svg>