<svg xmlns="http://www.w3.org/2000/svg" viewBox="0 0 438 438"><defs><style>.cls-1{fill:#fff;}.cls-2{fill:none;}</style></defs><title>Recurso 2</title><g id="Capa_2" data-name="Capa 2"><g id="Capa_7" data-name="Capa 7"><path class="cls-1" d="M291.09,320.57a9.26,9.26,0,0,0-1.62,9.1,7.89,7.89,0,0,0,8.09,6.07l-1.62-.51a11.33,11.33,0,0,0,9.17-2q8.1-8.59-2.15-19.22Q294.32,316,291.09,320.57Z"/><path class="cls-1" d="M171.38,107.66h-.54a30.63,30.63,0,0,0,.27-7.08c-.19-2.69-1.35-7.08-3.51-13.15s-5.39-10.62-9.71-13.65a12.68,12.68,0,0,0-5.39-2q-10.25-2-18.87,6.07c-.37.68-1,1.69-1.89,3s-1.89,4.3-3,8.85a47.48,47.48,0,0,0-1.08,14.41q2.16,17.72,13.76,36.16a97,97,0,0,0,29.39,30.09h.54Z"/><path class="cls-1" d="M169.76,240.16a59.24,59.24,0,0,0-7.55-15.68,34.72,34.72,0,0,0-3.78-3q-12.94-7.08-21.57,1-16.17,18.72-16.18,53.1.54,20.74,5.4,34.64t17.25,16.44q4.86.51,11.33-3a37.71,37.71,0,0,0,10.24-12.13A49.84,49.84,0,0,0,170,297.3a141.21,141.21,0,0,0,1.89-18.71q0-6.55-.54-24.78A114.64,114.64,0,0,0,169.76,240.16Z"/><path class="cls-1" d="M219,0C98.05,0,0,98.05,0,219S98.05,438,219,438,438,340,438,219,340,0,219,0Zm92.05,43.42a68.67,68.67,0,0,1,26.73-4,55.31,55.31,0,1,0,61.29,92,68.77,68.77,0,1,1-88-88Zm75,223q-8.64,25.79-44.22,38.94a16.07,16.07,0,0,1,.53,4q2.7,21.24-19.95,34.39a43.58,43.58,0,0,1-22.65,6.07,28,28,0,0,1-10.79-2A21.14,21.14,0,0,1,275.18,333q-3-10.87,4.05-20.48,3.76-5.57,11.86-9.11-8.62-6.56-12.67-10.11-3-2.58-7.33-7a160.9,160.9,0,0,1-20.71,40.16q-15.91,22.51-34.78,22.51h-3.78c-3.23-.34-5.93-.67-8.09-1a31.15,31.15,0,0,1-8.36-3q-5.13-2.52-9.16-9.1a75.91,75.91,0,0,1-7.28-16.69,79.14,79.14,0,0,1-7.55,9.61,69.23,69.23,0,0,1-17.8,13.65,50.93,50.93,0,0,1-22.65,6.07h-2.7a44.91,44.91,0,0,1-13.48-2,38.06,38.06,0,0,1-16.18-9.1q-22.09-19.72-21-61.2,1.62-58.14,34-75.35,16.71-9.11,37.22-4a63.39,63.39,0,0,1,14,6.07,70.16,70.16,0,0,1,8.63,6.06V186.55h-.54Q140.09,169.87,123.92,138t-9.71-56.64Q118,66.71,129.58,58.61t28.31-8.1H159a117.67,117.67,0,0,1,14.56,2,4.64,4.64,0,0,1,1.35.25,3.55,3.55,0,0,1,1.35.76A43.1,43.1,0,0,1,197.8,68.72q14,17.72,16.18,49.56a12.65,12.65,0,0,1,.54,4V320.06q2.14,7.1,7,8.09,7,1,12.94-4.55,17.34-19.22,26-50.44a38.66,38.66,0,0,1-2.52-5.19,52.53,52.53,0,0,1-3.5-15.67,56,56,0,0,1,3.24-22.51,38.31,38.31,0,0,1,10.51-15.68,71.06,71.06,0,0,1,12.41-8.85,51.37,51.37,0,0,1,11.59-4.55A42.13,42.13,0,0,1,303,198.18q19.94,0,30.2,10.62,10.23,10.13,8.63,23.77a5.63,5.63,0,0,1-2.43,4.81,8.57,8.57,0,0,1-5.13,1.77,12.06,12.06,0,0,1-3.77-1.52A6.68,6.68,0,0,1,328,235.1a7.4,7.4,0,0,1-.81-3.54,15,15,0,0,0-4.85-13.65,13,13,0,0,0-5.39-3.54,12.15,12.15,0,0,0-9.71,0q-10.78,5.06-11.86,18.71-1.1,12.64,1.88,21.49t15.37,20q5.38,3.54,9.71,6.57a60.09,60.09,0,0,1,12.94,11.63q30.19-10.62,36.68-30.34,2.14-6.57,8.89-4.55C385.37,259.21,387.09,262.08,386,266.46Z"/><path class="cls-2" d="M260.44,273.16q-8.64,31.21-26,50.44-5.94,5.58-12.94,4.55-4.86-1-7-8.09V122.33a12.65,12.65,0,0,0-.54-4q-2.16-31.86-16.18-49.56a43.1,43.1,0,0,0-21.57-15.17,3.55,3.55,0,0,0-1.35-.76,4.64,4.64,0,0,0-1.35-.25,117.67,117.67,0,0,0-14.56-2h-1.08q-16.71,0-28.31,8.1T114.21,81.36q-6.46,24.8,9.71,56.64t46.92,48.55h.54V208.8a70.16,70.16,0,0,0-8.63-6.06,63.39,63.39,0,0,0-14-6.07q-20.5-5.05-37.22,4-32.36,17.21-34,75.35-1.08,41.47,21,61.2a38.06,38.06,0,0,0,16.18,9.1,44.91,44.91,0,0,0,13.48,2h2.7a50.93,50.93,0,0,0,22.65-6.07,69.23,69.23,0,0,0,17.8-13.65,79.14,79.14,0,0,0,7.55-9.61,75.91,75.91,0,0,0,7.28,16.69q4,6.57,9.16,9.1a31.15,31.15,0,0,0,8.36,3c2.16.34,4.86.67,8.09,1h3.78q18.87,0,34.78-22.51a160.9,160.9,0,0,0,20.71-40.16q-1.63-1.67-3.46-3.58A50,50,0,0,1,260.44,273.16Zm-89.6-102.79a97,97,0,0,1-29.39-30.09q-11.61-18.45-13.76-36.16a47.48,47.48,0,0,1,1.08-14.41q1.62-6.83,3-8.85c.89-1.35,1.52-2.36,1.89-3q8.61-8.08,18.87-6.07a12.68,12.68,0,0,1,5.39,2q6.48,4.55,9.71,13.65c2.16,6.07,3.32,10.46,3.51,13.15a30.63,30.63,0,0,1-.27,7.08h.54v62.71ZM170,297.3a49.84,49.84,0,0,1-5.13,14.17,37.71,37.71,0,0,1-10.24,12.13q-6.48,3.56-11.33,3-12.4-2.53-17.25-16.44t-5.4-34.64q0-34.38,16.18-53.1,8.63-8.09,21.57-1a34.72,34.72,0,0,1,3.78,3,59.24,59.24,0,0,1,7.55,15.68,114.64,114.64,0,0,1,1.62,13.65q.52,18.21.54,24.78A141.21,141.21,0,0,1,170,297.3Z"/><path class="cls-2" d="M380.88,257.86q-6.75-2-8.89,4.55-6.48,19.72-36.68,30.34a60.09,60.09,0,0,0-12.94-11.63q-4.32-3-9.71-6.57-12.41-11.12-15.37-20t-1.88-21.49q1.06-13.65,11.86-18.71a12.15,12.15,0,0,1,9.71,0,13,13,0,0,1,5.39,3.54,15,15,0,0,1,4.85,13.65,7.4,7.4,0,0,0,.81,3.54,6.68,6.68,0,0,0,2.43,2.53,12.06,12.06,0,0,0,3.77,1.52,8.57,8.57,0,0,0,5.13-1.77,5.63,5.63,0,0,0,2.43-4.81q1.6-13.65-8.63-23.77Q322.9,198.18,303,198.18a42.13,42.13,0,0,0-10.79,2.53,51.37,51.37,0,0,0-11.59,4.55,71.06,71.06,0,0,0-12.41,8.85,38.31,38.31,0,0,0-10.51,15.68,56,56,0,0,0-3.24,22.51,52.53,52.53,0,0,0,3.5,15.67,38.66,38.66,0,0,0,2.52,5.19c.15-.55.31-1.09.46-1.65a20.59,20.59,0,0,0,1.08-5.05q2.14-6.57,9.17-4.55c4.66,1,6.47,3.71,5.39,8.09-.73,2.36-1.62,4.89-2.7,7.58q-1.26,4.38-2.75,8.64,4.38,4.45,7.33,7,4.05,3.54,12.67,10.11-8.08,3.56-11.86,9.11-7,9.6-4.05,20.48a21.14,21.14,0,0,0,13.75,14.92,28,28,0,0,0,10.79,2,43.58,43.58,0,0,0,22.65-6.07q22.65-13.14,19.95-34.39a16.07,16.07,0,0,0-.53-4q35.58-13.15,44.22-38.94C387.09,262.08,385.37,259.21,380.88,257.86Zm-75.77,75.35a11.33,11.33,0,0,1-9.17,2l1.62.51a7.89,7.89,0,0,1-8.09-6.07,9.26,9.26,0,0,1,1.62-9.1Q294.33,316,303,314,313.19,324.61,305.11,333.21Z"/><path class="cls-2" d="M276.54,270c1.08-4.38-.73-7.08-5.39-8.09q-7-2-9.17,4.55a20.59,20.59,0,0,1-1.08,5.05c-.15.56-.31,1.1-.46,1.65a50,50,0,0,0,7.19,9.48q1.83,1.92,3.46,3.58,1.49-4.26,2.75-8.64C274.92,274.89,275.81,272.36,276.54,270Z"/><path class="cls-2" d="M357.68,172.8a68.6,68.6,0,0,0,41.39-41.41,55.31,55.31,0,1,1-61.29-92,68.77,68.77,0,1,0,19.9,133.38Z"/></g></g></svg>