<?xml version="1.0" encoding="utf-8"?>
<!-- Generator: Adobe Illustrator 26.3.1, SVG Export Plug-In . SVG Version: 6.00 Build 0)  -->
<svg version="1.1" id="Capa_1" xmlns="http://www.w3.org/2000/svg" xmlns:xlink="http://www.w3.org/1999/xlink" x="0px" y="0px"
	 viewBox="0 0 714.1 570.1" style="enable-background:new 0 0 714.1 570.1;" xml:space="preserve">
<style type="text/css">
	.st0{opacity:0.4;}
	.st1{fill:none;stroke:#FFFFFF;stroke-width:4;stroke-miterlimit:10;}
	.st2{opacity:0.4;fill:none;stroke:#FFFFFF;stroke-width:14;stroke-miterlimit:10;}
	.st3{opacity:0.4;fill:none;stroke:#FFFFFF;stroke-width:7;stroke-linecap:round;stroke-miterlimit:10;}
	.st4{opacity:0.4;fill:#FFFFFF;}
	.st5{opacity:0.4;fill:none;stroke:#FFFFFF;stroke-width:8;stroke-miterlimit:10;}
	.st6{fill:#FFFFFF;}
</style>
<g class="st0">
	<line class="st1" x1="313.7" y1="228.2" x2="280.1" y2="194.6"/>
	<line class="st1" x1="296.9" y1="228.2" x2="263.3" y2="194.6"/>
	<line class="st1" x1="280.1" y1="228.2" x2="246.5" y2="194.6"/>
	<line class="st1" x1="263.3" y1="228.2" x2="229.7" y2="194.6"/>
	<line class="st1" x1="246.5" y1="228.2" x2="212.9" y2="194.6"/>
	<line class="st1" x1="229.7" y1="228.2" x2="196.1" y2="194.6"/>
	<line class="st1" x1="212.9" y1="228.2" x2="179.3" y2="194.6"/>
	<line class="st1" x1="196.1" y1="228.2" x2="162.5" y2="194.6"/>
	<line class="st1" x1="179.3" y1="228.2" x2="145.7" y2="194.6"/>
	<line class="st1" x1="162.5" y1="228.2" x2="128.9" y2="194.6"/>
	<line class="st1" x1="145.7" y1="228.2" x2="112.1" y2="194.6"/>
	<line class="st1" x1="128.9" y1="228.2" x2="95.3" y2="194.6"/>
	<line class="st1" x1="112.1" y1="228.2" x2="78.5" y2="194.6"/>
</g>
<circle class="st2" cx="554.1" cy="315.1" r="75.9"/>
<rect x="235.3" y="65.5" class="st3" width="79.3" height="79.3"/>
<rect x="337.3" y="228.9" class="st4" width="41.9" height="41.9"/>
<path class="st5" d="M427.7,168.2c10.5-10.5,27.5-10.5,38,0s10.5,27.5,0,37.9s-27.5,10.5-38,0S417.2,178.7,427.7,168.2z"/>
<g class="st0">
	<g>
		<path class="st6" d="M218.2,505.2c0-1.6-1.3-2.9-2.8-2.8c-1.6,0-2.9,1.3-2.9,2.9c0,1.6,1.3,2.8,2.8,2.8
			C216.9,508.1,218.2,506.8,218.2,505.2z"/>
		<path class="st6" d="M240,505.2c0-1.6-1.3-2.9-2.9-2.9c-1.6,0-2.9,1.3-2.8,2.8c0,1.6,1.3,2.9,2.9,2.9
			C238.7,508.1,240,506.8,240,505.2z"/>
		<path class="st6" d="M261.8,505.2c0-1.6-1.3-2.9-2.8-2.8c-1.6,0-2.8,1.3-2.8,2.8c0,1.6,1.3,2.9,2.8,2.8
			C260.5,508.1,261.8,506.8,261.8,505.2L261.8,505.2z"/>
		<path class="st6" d="M283.6,505.2c0-1.6-1.3-2.9-2.8-2.9c-1.6,0-2.9,1.3-2.9,2.9c0,1.6,1.3,2.8,2.9,2.9
			C282.3,508.1,283.6,506.8,283.6,505.2z"/>
		<path class="st6" d="M305.4,505.2c0-1.6-1.3-2.9-2.8-2.9c-1.6,0-2.8,1.3-2.9,2.9c0,1.6,1.3,2.9,2.9,2.9
			C304.1,508.1,305.4,506.8,305.4,505.2z"/>
		<path class="st6" d="M327.2,505.2c0-1.6-1.3-2.9-2.8-2.8c-1.6,0-2.8,1.3-2.8,2.8c0,1.6,1.3,2.9,2.8,2.8
			C326,508.1,327.2,506.8,327.2,505.2z"/>
		<path class="st6" d="M349,505.2c0-1.6-1.3-2.9-2.8-2.9s-2.8,1.3-2.8,2.8c0,1.6,1.3,2.9,2.8,2.8C347.8,508,349,506.8,349,505.2
			L349,505.2z"/>
		<path class="st6" d="M370.9,505.2c0-1.6-1.3-2.8-2.9-2.9c-1.6,0-2.8,1.3-2.9,2.9c0,1.6,1.3,2.9,2.9,2.9
			C369.6,508.1,370.9,506.8,370.9,505.2z"/>
		<path class="st6" d="M392.7,505.2c0-1.6-1.3-2.8-2.9-2.9c-1.6,0-2.9,1.3-2.9,2.9s1.3,2.8,2.9,2.8S392.7,506.8,392.7,505.2
			L392.7,505.2z"/>
		<path class="st6" d="M414.5,505.2c0-1.6-1.3-2.8-2.9-2.9c-1.6,0-2.8,1.3-2.8,2.9s1.3,2.8,2.8,2.9
			C413.2,508.1,414.5,506.8,414.5,505.2z"/>
		<path class="st6" d="M436.3,505.2c0-1.6-1.3-2.8-2.9-2.9c-1.6,0-2.8,1.3-2.9,2.9c0,1.6,1.3,2.9,2.9,2.9
			C435,508.1,436.3,506.8,436.3,505.2z"/>
	</g>
	<g>
		<path class="st6" d="M218.2,483.4c0-1.6-1.3-2.8-2.8-2.8c-1.6,0-2.9,1.3-2.9,2.9s1.3,2.9,2.8,2.8
			C216.9,486.2,218.2,485,218.2,483.4z"/>
		<path class="st6" d="M240,483.4c0-1.6-1.3-2.8-2.9-2.9c-1.6,0-2.9,1.3-2.9,2.9s1.3,2.9,2.9,2.9S240,485,240,483.4z"/>
		<path class="st6" d="M261.8,483.4c0-1.6-1.3-2.9-2.8-2.9s-2.9,1.3-2.9,2.9s1.3,2.8,2.8,2.8C260.5,486.2,261.8,485,261.8,483.4
			L261.8,483.4z"/>
		<path class="st6" d="M283.6,483.4c0-1.6-1.3-2.9-2.8-2.8c-1.6,0-2.9,1.3-2.9,2.9s1.3,2.8,2.8,2.8S283.6,485,283.6,483.4z"/>
		<path class="st6" d="M305.4,483.4c0-1.6-1.3-2.9-2.8-2.9c-1.6,0-2.8,1.3-2.8,2.8c0,1.6,1.3,2.9,2.9,2.9
			C304.2,486.2,305.4,485,305.4,483.4z"/>
		<path class="st6" d="M327.2,483.4c0-1.6-1.3-2.9-2.8-2.9c-1.6,0-2.9,1.3-2.8,2.8c0,1.6,1.3,2.9,2.9,2.9
			C326,486.2,327.2,485,327.2,483.4z"/>
		<path class="st6" d="M349,483.4c0-1.6-1.3-2.9-2.8-2.9s-2.9,1.3-2.9,2.9s1.3,2.9,2.8,2.8C347.8,486.2,349,485,349,483.4L349,483.4
			z"/>
		<path class="st6" d="M370.9,483.4c0-1.6-1.3-2.8-2.9-2.9c-1.6,0-2.9,1.3-2.9,2.9s1.3,2.9,2.9,2.9
			C369.6,486.2,370.8,485,370.9,483.4z"/>
		<path class="st6" d="M392.7,483.4c0-1.6-1.3-2.9-2.9-2.9s-2.9,1.3-2.9,2.9s1.3,2.8,2.9,2.8S392.7,485,392.7,483.4L392.7,483.4z"/>
		<path class="st6" d="M414.5,483.4c0-1.6-1.3-2.9-2.9-2.9c-1.6,0-2.8,1.3-2.8,2.9s1.3,2.9,2.8,2.9S414.5,485,414.5,483.4z"/>
		<path class="st6" d="M436.3,483.4c0-1.6-1.3-2.8-2.9-2.9c-1.6,0-2.9,1.3-2.9,2.9s1.3,2.9,2.9,2.9C435,486.2,436.3,485,436.3,483.4
			z"/>
	</g>
	<g>
		<path class="st6" d="M218.2,461.6c0-1.6-1.3-2.9-2.8-2.9c-1.6,0-2.9,1.3-2.9,2.9c0,1.6,1.3,2.9,2.9,2.9
			C216.9,464.4,218.2,463.2,218.2,461.6L218.2,461.6z"/>
		<path class="st6" d="M240,461.6c0-1.6-1.3-2.9-2.8-2.9c-1.6,0-2.9,1.3-2.9,2.9c0,1.6,1.3,2.9,2.9,2.9
			C238.7,464.4,240,463.2,240,461.6L240,461.6z"/>
		<path class="st6" d="M261.8,461.6c0-1.6-1.3-2.9-2.8-2.9s-2.9,1.3-2.8,2.9c0,1.6,1.3,2.9,2.8,2.8
			C260.5,464.4,261.8,463.1,261.8,461.6z"/>
		<path class="st6" d="M283.6,461.6c0-1.6-1.3-2.9-2.8-2.9c-1.6,0-2.9,1.3-2.8,2.9c0,1.6,1.3,2.8,2.8,2.8
			C282.3,464.4,283.6,463.1,283.6,461.6z"/>
		<path class="st6" d="M305.4,461.6c0-1.6-1.3-2.9-2.8-2.9c-1.6,0-2.9,1.3-2.8,2.9c0,1.6,1.3,2.8,2.8,2.8
			C304.1,464.4,305.4,463.1,305.4,461.6L305.4,461.6z"/>
		<path class="st6" d="M327.2,461.6c0-1.6-1.3-2.9-2.8-2.9c-1.6,0-2.9,1.3-2.8,2.9c0,1.6,1.3,2.9,2.9,2.9
			C326,464.4,327.2,463.2,327.2,461.6L327.2,461.6z"/>
		<path class="st6" d="M349,461.6c0-1.6-1.3-2.9-2.8-2.9c-1.6,0-2.9,1.3-2.8,2.9c0,1.6,1.3,2.9,2.8,2.8
			C347.8,464.4,349,463.1,349,461.6z"/>
		<path class="st6" d="M370.9,461.6c0-1.6-1.3-2.9-2.8-2.9s-2.9,1.3-2.9,2.9c0,1.6,1.3,2.8,2.8,2.8S370.9,463.1,370.9,461.6
			L370.9,461.6z"/>
		<path class="st6" d="M392.7,461.6c0-1.6-1.3-2.9-2.9-2.9s-2.9,1.3-2.9,2.9c0,1.6,1.3,2.8,2.9,2.8S392.7,463.1,392.7,461.6
			L392.7,461.6z"/>
		<path class="st6" d="M414.5,461.6c0-1.6-1.3-2.9-2.9-2.9s-2.8,1.3-2.8,2.9c0,1.6,1.3,2.8,2.8,2.8S414.5,463.1,414.5,461.6z"/>
		<path class="st6" d="M436.3,461.6c0-1.6-1.3-2.9-2.8-2.9s-2.9,1.3-2.9,2.9c0,1.6,1.3,2.9,2.9,2.9
			C435,464.4,436.3,463.2,436.3,461.6L436.3,461.6z"/>
	</g>
	<g>
		<path class="st6" d="M218.2,439.8c0-1.6-1.3-2.9-2.9-2.9c-1.6,0-2.8,1.3-2.9,2.9c0,1.6,1.3,2.8,2.9,2.9
			C216.9,442.6,218.2,441.4,218.2,439.8z"/>
		<path class="st6" d="M240,439.8c0-1.6-1.3-2.9-2.8-2.8c-1.6,0-2.9,1.3-2.8,2.8c0,1.6,1.3,2.9,2.8,2.8
			C238.7,442.6,240,441.4,240,439.8z"/>
		<path class="st6" d="M261.8,439.8c0-1.6-1.3-2.9-2.8-2.8c-1.6,0-2.9,1.3-2.8,2.8c0,1.6,1.3,2.9,2.8,2.8
			C260.5,442.6,261.8,441.4,261.8,439.8z"/>
		<path class="st6" d="M283.6,439.8c0-1.6-1.3-2.9-2.8-2.8c-1.6,0-2.9,1.3-2.8,2.8c0,1.6,1.3,2.9,2.8,2.8
			C282.3,442.6,283.6,441.4,283.6,439.8z"/>
		<path class="st6" d="M305.4,439.8c0-1.6-1.3-2.8-2.8-2.8c-1.6,0-2.9,1.3-2.9,2.9c0,1.6,1.3,2.9,2.8,2.8
			C304.1,442.6,305.4,441.4,305.4,439.8z"/>
		<path class="st6" d="M327.2,439.8c0-1.6-1.3-2.9-2.8-2.8c-1.6,0-2.8,1.3-2.9,2.9c0,1.6,1.3,2.8,2.8,2.8S327.2,441.4,327.2,439.8z"
			/>
		<path class="st6" d="M349,439.8c0-1.6-1.3-2.8-2.9-2.9c-1.6,0-2.9,1.3-2.8,2.8c0,1.6,1.3,2.9,2.9,2.9S349,441.4,349,439.8z"/>
		<path class="st6" d="M370.9,439.8c0-1.6-1.3-2.8-2.9-2.9c-1.6,0-2.9,1.3-2.9,2.9s1.3,2.8,2.9,2.9
			C369.6,442.6,370.8,441.4,370.9,439.8z"/>
		<path class="st6" d="M392.7,439.8c0-1.6-1.3-2.8-2.8-2.8c-1.6,0-2.9,1.3-2.9,2.9s1.3,2.8,2.9,2.8S392.7,441.4,392.7,439.8
			L392.7,439.8z"/>
		<path class="st6" d="M414.5,439.8c0-1.6-1.3-2.9-2.9-2.9c-1.6,0-2.8,1.3-2.8,2.9c0,1.6,1.3,2.8,2.8,2.8S414.5,441.4,414.5,439.8z"
			/>
		<path class="st6" d="M436.3,439.8c0-1.6-1.3-2.9-2.9-2.9c-1.6,0-2.8,1.3-2.9,2.9c0,1.6,1.3,2.9,2.9,2.9
			C435,442.6,436.3,441.4,436.3,439.8z"/>
	</g>
	<g>
		<path class="st6" d="M218.2,418c0-1.6-1.3-2.9-2.9-2.9s-2.8,1.3-2.8,2.8c0,1.6,1.3,2.9,2.9,2.9C216.9,420.8,218.2,419.5,218.2,418
			z"/>
		<path class="st6" d="M240,418c0-1.6-1.3-2.9-2.9-2.9c-1.6,0-2.8,1.3-2.8,2.8c0,1.6,1.3,2.9,2.9,2.9C238.7,420.8,240,419.5,240,418
			z"/>
		<path class="st6" d="M261.8,418c0-1.6-1.3-2.9-2.8-2.9s-2.9,1.3-2.9,2.9c0,1.6,1.3,2.9,2.8,2.8C260.5,420.8,261.8,419.5,261.8,418
			L261.8,418z"/>
		<path class="st6" d="M283.6,418c0-1.6-1.3-2.9-2.8-2.9c-1.6,0-2.8,1.3-2.8,2.8c0,1.6,1.3,2.9,2.9,2.9
			C282.3,420.8,283.6,419.5,283.6,418z"/>
		<path class="st6" d="M305.4,418c0-1.6-1.3-2.9-2.8-2.9c-1.6,0-2.9,1.3-2.9,2.9c0,1.6,1.3,2.9,2.9,2.9S305.4,419.5,305.4,418z"/>
		<path class="st6" d="M327.2,418c0-1.6-1.3-2.8-2.8-2.9c-1.6,0-2.9,1.3-2.9,2.9c0,1.6,1.3,2.9,2.9,2.9
			C326,420.8,327.2,419.5,327.2,418z"/>
		<path class="st6" d="M349,418c0-1.6-1.3-2.9-2.8-2.8c-1.6,0-2.9,1.3-2.8,2.8c0,1.6,1.3,2.9,2.9,2.9
			C347.8,420.8,349.1,419.5,349,418L349,418z"/>
		<path class="st6" d="M370.9,418c0-1.6-1.3-2.9-2.9-2.9c-1.6,0-2.9,1.3-2.9,2.9c0,1.6,1.3,2.8,2.9,2.9
			C369.6,420.8,370.8,419.5,370.9,418z"/>
		<path class="st6" d="M392.7,418c0-1.6-1.3-2.9-2.9-2.9s-2.9,1.3-2.9,2.8c0,1.6,1.3,2.9,2.9,2.9C391.4,420.8,392.7,419.5,392.7,418
			L392.7,418z"/>
		<path class="st6" d="M414.5,418c0-1.6-1.3-2.9-2.9-2.8c-1.6,0-2.8,1.3-2.8,2.8s1.3,2.8,2.8,2.8C413.2,420.8,414.5,419.5,414.5,418
			L414.5,418z"/>
		<path class="st6" d="M436.3,418c0-1.6-1.3-2.9-2.9-2.9c-1.6,0-2.9,1.3-2.9,2.9c0,1.6,1.3,2.8,2.9,2.9
			C435,420.8,436.3,419.5,436.3,418z"/>
	</g>
	<g>
		<path class="st6" d="M218.2,396.1c0-1.6-1.3-2.9-2.9-2.9c-1.6,0-2.8,1.3-2.8,2.8s1.3,2.9,2.9,2.9
			C216.9,399,218.2,397.7,218.2,396.1z"/>
		<path class="st6" d="M240,396.1c0-1.6-1.3-2.9-2.9-2.9c-1.6,0-2.9,1.3-2.9,2.9s1.3,2.9,2.9,2.9C238.7,399,240,397.7,240,396.1z"/>
		<path class="st6" d="M261.8,396.1c0-1.6-1.3-2.9-2.8-2.9s-2.8,1.3-2.9,2.9c0,1.6,1.3,2.9,2.9,2.9
			C260.5,399,261.8,397.7,261.8,396.1L261.8,396.1z"/>
		<path class="st6" d="M283.6,396.1c0-1.6-1.3-2.8-2.8-2.9c-1.6,0-2.8,1.3-2.9,2.9c0,1.6,1.3,2.9,2.9,2.9
			C282.3,399,283.6,397.7,283.6,396.1z"/>
		<path class="st6" d="M305.4,396.1c0-1.6-1.3-2.8-2.8-2.8c-1.6,0-2.9,1.3-2.9,2.9c0,1.6,1.3,2.9,2.8,2.8
			C304.1,399,305.4,397.7,305.4,396.1z"/>
		<path class="st6" d="M327.2,396.1c0-1.6-1.3-2.8-2.8-2.8c-1.6,0-2.9,1.3-2.9,2.9s1.3,2.9,2.8,2.8C326,399,327.2,397.7,327.2,396.1
			z"/>
		<path class="st6" d="M349,396.1c0-1.6-1.3-2.9-2.8-2.9s-2.9,1.3-2.9,2.9c0,1.6,1.3,2.9,2.8,2.8C347.8,399,349,397.7,349,396.1
			L349,396.1z"/>
		<path class="st6" d="M370.9,396.1c0-1.6-1.3-2.9-2.8-2.8c-1.6,0-2.8,1.3-2.8,2.8c0,1.6,1.3,2.9,2.8,2.8
			C369.6,399,370.9,397.7,370.9,396.1z"/>
		<path class="st6" d="M392.7,396.1c0-1.6-1.3-2.9-2.9-2.9s-2.9,1.3-2.9,2.9c0,1.6,1.3,2.9,2.9,2.9
			C391.4,399,392.7,397.7,392.7,396.1z"/>
		<path class="st6" d="M414.5,396.1c0-1.6-1.3-2.9-2.9-2.9c-1.6,0-2.8,1.3-2.8,2.9c0,1.6,1.3,2.8,2.8,2.8
			C413.2,399,414.5,397.7,414.5,396.1L414.5,396.1z"/>
		<path class="st6" d="M436.3,396.1c0-1.6-1.3-2.9-2.8-2.8c-1.6,0-2.8,1.3-2.8,2.8c0,1.6,1.3,2.9,2.8,2.8
			C435,399,436.3,397.7,436.3,396.1z"/>
	</g>
	<g>
		<path class="st6" d="M218.2,374.3c0-1.6-1.3-2.9-2.9-2.9c-1.6,0-2.8,1.3-2.8,2.8c0,1.6,1.3,2.9,2.9,2.9
			C216.9,377.2,218.2,375.9,218.2,374.3z"/>
		<path class="st6" d="M240,374.3c0-1.6-1.3-2.9-2.9-2.9c-1.6,0-2.8,1.3-2.8,2.8s1.3,2.9,2.9,2.9C238.7,377.2,240,375.9,240,374.3z"
			/>
		<path class="st6" d="M261.8,374.3c0-1.6-1.3-2.9-2.8-2.9s-2.9,1.3-2.9,2.9c0,1.6,1.3,2.9,2.8,2.8
			C260.5,377.2,261.8,375.9,261.8,374.3L261.8,374.3z"/>
		<path class="st6" d="M283.6,374.3c0-1.6-1.3-2.9-2.8-2.9c-1.6,0-2.9,1.3-2.8,2.8c0,1.6,1.3,2.9,2.9,2.9
			C282.3,377.2,283.6,375.9,283.6,374.3z"/>
		<path class="st6" d="M305.4,374.3c0-1.6-1.3-2.8-2.8-2.8c-1.6,0-2.9,1.3-2.9,2.9s1.3,2.9,2.8,2.8
			C304.1,377.2,305.4,375.9,305.4,374.3z"/>
		<path class="st6" d="M327.2,374.3c0-1.6-1.3-2.8-2.8-2.8c-1.6,0-2.9,1.3-2.9,2.9s1.3,2.9,2.8,2.8
			C326,377.2,327.2,375.9,327.2,374.3z"/>
		<path class="st6" d="M349,374.3c0-1.6-1.3-2.9-2.8-2.9s-2.9,1.3-2.9,2.9s1.3,2.9,2.8,2.8C347.8,377.2,349,375.9,349,374.3
			L349,374.3z"/>
		<path class="st6" d="M370.9,374.3c0-1.6-1.3-2.8-2.8-2.8s-2.9,1.3-2.9,2.9c0,1.6,1.3,2.8,2.8,2.8
			C369.6,377.2,370.9,375.9,370.9,374.3z"/>
		<path class="st6" d="M392.7,374.3c0-1.6-1.3-2.9-2.8-2.8c-1.6,0-2.9,1.3-2.9,2.9s1.3,2.8,2.9,2.8S392.7,375.9,392.7,374.3
			L392.7,374.3z"/>
		<path class="st6" d="M414.5,374.3c0-1.6-1.3-2.9-2.9-2.9c-1.6,0-2.8,1.3-2.8,2.9c0,1.6,1.3,2.8,2.8,2.8
			C413.2,377.2,414.5,375.9,414.5,374.3z"/>
		<path class="st6" d="M436.3,374.3c0-1.6-1.3-2.9-2.9-2.9c-1.6,0-2.8,1.3-2.8,2.8s1.3,2.9,2.9,2.9
			C435,377.2,436.3,375.9,436.3,374.3z"/>
	</g>
	<g>
		<path class="st6" d="M218.2,352.5c0-1.6-1.3-2.9-2.9-2.9s-2.9,1.3-2.9,2.8s1.3,2.9,2.9,2.9C216.9,355.4,218.1,354.1,218.2,352.5
			L218.2,352.5z"/>
		<path class="st6" d="M240,352.5c0-1.6-1.3-2.8-2.9-2.8s-2.9,1.3-2.9,2.8s1.3,2.9,2.9,2.9C238.7,355.4,240,354.1,240,352.5z"/>
		<path class="st6" d="M261.8,352.5c0-1.6-1.3-2.8-2.8-2.8s-2.9,1.3-2.9,2.8s1.3,2.8,2.9,2.9C260.5,355.4,261.8,354.1,261.8,352.5
			L261.8,352.5z"/>
		<path class="st6" d="M283.6,352.5c0-1.6-1.3-2.8-2.8-2.8c-1.6,0-2.9,1.3-2.9,2.8s1.3,2.9,2.9,2.9
			C282.3,355.4,283.6,354.1,283.6,352.5L283.6,352.5z"/>
		<path class="st6" d="M305.4,352.5c0-1.6-1.3-2.8-2.8-2.8c-1.6,0-2.8,1.3-2.8,2.8s1.3,2.8,2.8,2.8
			C304.1,355.4,305.4,354.1,305.4,352.5L305.4,352.5z"/>
		<path class="st6" d="M327.2,352.5c0-1.6-1.3-2.8-2.8-2.8c-1.6,0-2.8,1.3-2.8,2.8s1.3,2.9,2.8,2.8
			C326,355.4,327.2,354.1,327.2,352.5L327.2,352.5z"/>
		<path class="st6" d="M349,352.5c0-1.6-1.3-2.8-2.8-2.8s-2.8,1.3-2.9,2.8c0,1.6,1.3,2.9,2.9,2.9C347.8,355.4,349,354.1,349,352.5z"
			/>
		<path class="st6" d="M370.9,352.5c0-1.6-1.3-2.8-2.9-2.8c-1.6,0-2.9,1.3-2.9,2.8s1.3,2.8,2.9,2.9
			C369.6,355.4,370.9,354.1,370.9,352.5z"/>
		<path class="st6" d="M392.7,352.5c0-1.6-1.3-2.8-2.9-2.8s-2.9,1.3-2.9,2.8s1.3,2.9,2.9,2.9C391.4,355.4,392.7,354.1,392.7,352.5z"
			/>
		<path class="st6" d="M414.5,352.5c0-1.6-1.3-2.8-2.9-2.8s-2.8,1.3-2.8,2.8s1.3,2.9,2.8,2.9S414.5,354.1,414.5,352.5z"/>
		<path class="st6" d="M436.3,352.5c0-1.6-1.3-2.9-2.9-2.9s-2.9,1.3-2.9,2.8s1.3,2.9,2.9,2.9C435,355.4,436.3,354.1,436.3,352.5
			L436.3,352.5z"/>
	</g>
	<g>
		<path class="st6" d="M218.2,330.7c0-1.6-1.3-2.8-2.9-2.9c-1.6,0-2.9,1.3-2.9,2.9c0,1.6,1.3,2.9,2.9,2.9
			C216.9,333.6,218.2,332.3,218.2,330.7z"/>
		<path class="st6" d="M240,330.7c0-1.6-1.3-2.8-2.9-2.9c-1.6,0-2.9,1.3-2.9,2.9s1.3,2.8,2.9,2.9C238.7,333.6,240,332.3,240,330.7z"
			/>
		<path class="st6" d="M261.8,330.7c0-1.6-1.3-2.9-2.8-2.9s-2.9,1.3-2.9,2.9s1.3,2.8,2.9,2.9C260.5,333.6,261.8,332.3,261.8,330.7z"
			/>
		<path class="st6" d="M283.6,330.7c0-1.6-1.3-2.8-2.8-2.9c-1.6,0-2.9,1.3-2.9,2.9s1.3,2.8,2.9,2.9
			C282.3,333.6,283.6,332.3,283.6,330.7z"/>
		<path class="st6" d="M305.4,330.7c0-1.6-1.3-2.9-2.8-2.8c-1.6,0-2.9,1.3-2.8,2.8c0,1.6,1.3,2.9,2.8,2.8
			C304.2,333.5,305.4,332.3,305.4,330.7z"/>
		<path class="st6" d="M327.2,330.7c0-1.6-1.3-2.9-2.8-2.9c-1.6,0-2.8,1.3-2.9,2.9c0,1.6,1.3,2.9,2.9,2.9
			C326,333.6,327.2,332.3,327.2,330.7z"/>
		<path class="st6" d="M349,330.7c0-1.6-1.3-2.9-2.8-2.9s-2.8,1.3-2.9,2.9c0,1.6,1.3,2.9,2.9,2.9C347.8,333.6,349,332.3,349,330.7z"
			/>
		<path class="st6" d="M370.9,330.7c0-1.6-1.3-2.9-2.8-2.8c-1.6,0-2.9,1.3-2.8,2.8c0,1.6,1.3,2.9,2.8,2.8
			C369.6,333.5,370.9,332.3,370.9,330.7z"/>
		<path class="st6" d="M392.7,330.7c0-1.6-1.3-2.8-2.8-2.8c-1.6,0-2.9,1.3-2.9,2.8s1.3,2.9,2.9,2.8
			C391.4,333.5,392.7,332.3,392.7,330.7z"/>
		<path class="st6" d="M414.5,330.7c0-1.6-1.3-2.9-2.9-2.9c-1.6,0-2.8,1.3-2.8,2.9s1.3,2.9,2.8,2.8
			C413.2,333.5,414.5,332.3,414.5,330.7z"/>
		<path class="st6" d="M436.3,330.7c0-1.6-1.3-2.9-2.8-2.8c-1.6,0-2.9,1.3-2.8,2.8c0,1.6,1.3,2.8,2.8,2.8S436.3,332.3,436.3,330.7z"
			/>
	</g>
	<g>
		<path class="st6" d="M218.2,308.9c0-1.6-1.3-2.8-2.8-2.8c-1.6,0-2.9,1.3-2.9,2.9c0,1.6,1.3,2.8,2.8,2.8
			C216.9,311.7,218.2,310.5,218.2,308.9z"/>
		<path class="st6" d="M240,308.9c0-1.6-1.3-2.8-2.9-2.9c-1.6,0-2.9,1.3-2.9,2.9c0,1.6,1.3,2.8,2.9,2.8
			C238.7,311.7,240,310.5,240,308.9z"/>
		<path class="st6" d="M261.8,308.9c0-1.6-1.3-2.8-2.8-2.8s-2.8,1.3-2.9,2.9c0,1.6,1.3,2.8,2.9,2.8
			C260.5,311.8,261.8,310.5,261.8,308.9L261.8,308.9z"/>
		<path class="st6" d="M283.6,308.9c0-1.6-1.3-2.9-2.8-2.9c-1.6,0-2.9,1.3-2.9,2.9c0,1.6,1.3,2.8,2.9,2.8
			C282.3,311.7,283.6,310.5,283.6,308.9z"/>
		<path class="st6" d="M305.4,308.9c0-1.6-1.3-2.9-2.8-2.9c-1.6,0-2.8,1.3-2.8,2.8c0,1.6,1.3,2.8,2.9,2.8
			C304.2,311.7,305.4,310.5,305.4,308.9z"/>
		<path class="st6" d="M327.2,308.9c0-1.6-1.3-2.9-2.8-2.9c-1.6,0-2.8,1.3-2.9,2.9c0,1.6,1.3,2.8,2.9,2.8
			C326,311.7,327.2,310.5,327.2,308.9z"/>
		<path class="st6" d="M349,308.9c0-1.6-1.3-2.9-2.8-2.9s-2.8,1.3-2.9,2.9c0,1.6,1.3,2.8,2.9,2.8C347.8,311.7,349.1,310.5,349,308.9
			z"/>
		<path class="st6" d="M370.9,308.9c0-1.6-1.3-2.8-2.8-2.8s-2.9,1.3-2.9,2.9c0,1.6,1.3,2.8,2.8,2.8
			C369.6,311.7,370.9,310.5,370.9,308.9z"/>
		<path class="st6" d="M392.7,308.9c0-1.6-1.3-2.9-2.9-2.9s-2.9,1.3-2.9,2.9c0,1.6,1.3,2.8,2.9,2.8
			C391.4,311.7,392.7,310.5,392.7,308.9L392.7,308.9z"/>
		<path class="st6" d="M414.5,308.9c0-1.6-1.3-2.9-2.9-2.9c-1.6,0-2.8,1.3-2.8,2.9s1.3,2.8,2.8,2.8S414.5,310.5,414.5,308.9z"/>
		<path class="st6" d="M436.3,308.9c0-1.6-1.3-2.8-2.9-2.9c-1.6,0-2.9,1.3-2.9,2.9c0,1.6,1.3,2.8,2.9,2.8
			C435,311.7,436.3,310.5,436.3,308.9z"/>
	</g>
	<g>
		<path class="st6" d="M218.2,287.1c0-1.6-1.3-2.8-2.8-2.8c-1.6,0-2.9,1.3-2.9,2.9c0,1.6,1.3,2.8,2.9,2.8
			C216.9,289.9,218.2,288.7,218.2,287.1L218.2,287.1z"/>
		<path class="st6" d="M240,287.1c0-1.6-1.3-2.9-2.8-2.8c-1.6,0-2.9,1.3-2.9,2.9c0,1.6,1.3,2.8,2.9,2.8
			C238.7,289.9,240,288.7,240,287.1L240,287.1z"/>
		<path class="st6" d="M261.8,287.1c0-1.6-1.3-2.8-2.8-2.8s-2.9,1.3-2.8,2.8c0,1.6,1.3,2.8,2.8,2.8S261.8,288.6,261.8,287.1
			L261.8,287.1z"/>
		<path class="st6" d="M283.6,287.1c0-1.6-1.3-2.9-2.8-2.9c-1.6,0-2.9,1.3-2.9,2.9c0,1.6,1.3,2.8,2.9,2.8
			C282.3,289.9,283.6,288.6,283.6,287.1L283.6,287.1z"/>
		<path class="st6" d="M305.4,287.1c0-1.6-1.3-2.9-2.8-2.9c-1.6,0-2.8,1.3-2.8,2.8c0,1.6,1.3,2.8,2.8,2.8
			C304.1,289.9,305.4,288.6,305.4,287.1L305.4,287.1z"/>
		<path class="st6" d="M327.2,287.1c0-1.6-1.3-2.9-2.8-2.9c-1.6,0-2.8,1.3-2.8,2.8s1.3,2.8,2.8,2.8S327.2,288.6,327.2,287.1
			L327.2,287.1z"/>
		<path class="st6" d="M349,287.1c0-1.6-1.3-2.8-2.8-2.8c-1.6,0-2.9,1.3-2.8,2.8c0,1.6,1.3,2.8,2.8,2.8S349,288.6,349,287.1z"/>
		<path class="st6" d="M370.9,287.1c0-1.6-1.3-2.8-2.9-2.9c-1.6,0-2.8,1.3-2.9,2.9c0,1.6,1.3,2.8,2.9,2.8S370.9,288.6,370.9,287.1z"
			/>
		<path class="st6" d="M392.7,287.1c0-1.6-1.3-2.9-2.9-2.9s-2.9,1.3-2.9,2.9c0,1.6,1.3,2.8,2.9,2.8
			C391.4,289.9,392.7,288.6,392.7,287.1z"/>
		<path class="st6" d="M414.5,287.1c0-1.6-1.3-2.8-2.9-2.8s-2.8,1.3-2.8,2.8s1.3,2.8,2.8,2.8C413.2,289.9,414.5,288.6,414.5,287.1z"
			/>
		<path class="st6" d="M436.3,287.1c0-1.6-1.3-2.8-2.8-2.8c-1.6,0-2.9,1.3-2.9,2.9c0,1.6,1.3,2.8,2.9,2.8
			C435,289.9,436.3,288.7,436.3,287.1L436.3,287.1z"/>
	</g>
</g>
</svg>
