<?xml version="1.0" standalone="no"?>
<!DOCTYPE svg PUBLIC "-//W3C//DTD SVG 20010904//EN"
 "http://www.w3.org/TR/2001/REC-SVG-20010904/DTD/svg10.dtd">
<svg version="1.0" xmlns="http://www.w3.org/2000/svg"
 width="4993.000000pt" height="1451.000000pt" viewBox="0 0 4993.000000 1451.000000"
 preserveAspectRatio="xMidYMid meet">

<g transform="translate(0.000000,1451.000000) scale(0.100000,-0.100000)"
fill="#000000" stroke="none">
<path d="M4784 12145 c-120 -26 -264 -101 -350 -183 -41 -40 -109 -154 -134
-227 -113 -326 -123 -636 -33 -985 82 -322 231 -644 448 -970 138 -207 252
-347 415 -510 195 -196 483 -420 538 -420 l24 0 -5 1178 c-5 1325 3 1198 -87
1476 -56 171 -111 292 -175 381 -62 88 -168 183 -241 217 -113 53 -276 70
-400 43z m299 -44 c202 -52 356 -236 467 -557 85 -247 113 -418 92 -561 -5
-34 -5 -64 -1 -65 10 -4 25 -2028 15 -2028 -26 0 -268 187 -411 317 -412 377
-768 943 -921 1467 -100 342 -109 596 -34 896 37 151 61 211 112 290 71 107
218 207 358 244 81 22 232 20 323 -3z"/>
<path d="M4758 7285 c-120 -30 -210 -92 -297 -204 -380 -492 -544 -1244 -456
-2097 38 -371 117 -699 216 -896 103 -206 276 -352 475 -402 82 -21 125 -20
220 4 199 51 348 167 498 388 55 82 149 282 184 392 86 270 118 605 108 1130
-15 784 -42 962 -188 1254 -106 211 -168 283 -308 355 -152 79 -326 108 -452
76z m280 -45 c158 -44 287 -130 356 -238 60 -92 136 -248 179 -362 60 -165 83
-393 96 -960 9 -394 4 -557 -25 -800 -32 -274 -69 -409 -169 -615 -167 -345
-423 -555 -676 -555 -166 0 -358 111 -473 274 -135 189 -226 499 -283 956 -26
209 -26 749 0 940 67 494 206 864 437 1166 84 109 160 167 265 200 64 20 209
17 293 -6z"/>
<path d="M9929 4101 c-165 -54 -277 -137 -340 -253 -31 -58 -34 -69 -33 -148
1 -147 57 -246 167 -298 95 -45 255 -24 370 47 39 24 88 89 119 158 30 68 30
196 0 274 -34 86 -155 249 -184 249 -7 -1 -51 -13 -99 -29z m154 -76 c139
-173 155 -343 45 -491 -50 -66 -134 -105 -246 -113 -106 -8 -155 6 -207 56
-60 58 -80 113 -80 218 0 69 5 99 19 128 28 57 106 137 171 176 65 40 201 91
230 88 10 -1 41 -29 68 -62z"/>
</g>
</svg>
