<svg xmlns="http://www.w3.org/2000/svg" viewBox="0 0 714.1 570.1"><path d="M313.7 228.2l-33.6-33.6m16.8 33.6l-33.6-33.6m16.8 33.6l-33.6-33.6m16.8 33.6l-33.6-33.6m16.8 33.6l-33.6-33.6m16.8 33.6l-33.6-33.6m16.8 33.6l-33.6-33.6m16.8 33.6l-33.6-33.6m16.8 33.6l-33.6-33.6m16.8 33.6l-33.6-33.6m16.8 33.6l-33.6-33.6m16.8 33.6l-33.6-33.6m16.8 33.6l-33.6-33.6" fill="none" stroke="#fff" stroke-width="4" stroke-miterlimit="10"/><circle cx="554.1" cy="315.1" r="75.9" opacity=".4" fill="none" stroke="#fff" stroke-width="14" stroke-miterlimit="10"/><path opacity=".4" fill="none" stroke="#fff" stroke-width="7" stroke-linecap="round" stroke-miterlimit="10" d="M235.3 65.5h79.3v79.3h-79.3z"/><path opacity=".4" fill="#fff" d="M337.3 228.9h41.9v41.9h-41.9z"/><path d="M427.7 168.2c10.5-10.5 27.5-10.5 38 0s10.5 27.5 0 37.9-27.5 10.5-38 0-10.5-27.4 0-37.9z" opacity=".4" fill="none" stroke="#fff" stroke-width="8" stroke-miterlimit="10"/><path d="M218.2 505.2c0-1.6-1.3-2.9-2.8-2.8-1.6 0-2.9 1.3-2.9 2.9 0 1.6 1.3 2.8 2.8 2.8 1.6 0 2.9-1.3 2.9-2.9zm21.8 0c0-1.6-1.3-2.9-2.9-2.9-1.6 0-2.9 1.3-2.8 2.8 0 1.6 1.3 2.9 2.9 2.9 1.5.1 2.8-1.2 2.8-2.8zm21.8 0c0-1.6-1.3-2.9-2.8-2.8-1.6 0-2.8 1.3-2.8 2.8 0 1.6 1.3 2.9 2.8 2.8 1.5.1 2.8-1.2 2.8-2.8zm21.8 0c0-1.6-1.3-2.9-2.8-2.9-1.6 0-2.9 1.3-2.9 2.9 0 1.6 1.3 2.8 2.9 2.9 1.5 0 2.8-1.3 2.8-2.9zm21.8 0c0-1.6-1.3-2.9-2.8-2.9-1.6 0-2.8 1.3-2.9 2.9 0 1.6 1.3 2.9 2.9 2.9 1.5 0 2.8-1.3 2.8-2.9zm21.8 0c0-1.6-1.3-2.9-2.8-2.8-1.6 0-2.8 1.3-2.8 2.8 0 1.6 1.3 2.9 2.8 2.8 1.6.1 2.8-1.2 2.8-2.8zm21.8 0c0-1.6-1.3-2.9-2.8-2.9s-2.8 1.3-2.8 2.8c0 1.6 1.3 2.9 2.8 2.8 1.6.1 2.8-1.1 2.8-2.7zm21.9 0c0-1.6-1.3-2.8-2.9-2.9-1.6 0-2.8 1.3-2.9 2.9 0 1.6 1.3 2.9 2.9 2.9 1.6 0 2.9-1.3 2.9-2.9zm21.8 0c0-1.6-1.3-2.8-2.9-2.9-1.6 0-2.9 1.3-2.9 2.9s1.3 2.8 2.9 2.8 2.9-1.2 2.9-2.8zm21.8 0c0-1.6-1.3-2.8-2.9-2.9-1.6 0-2.8 1.3-2.8 2.9s1.3 2.8 2.8 2.9c1.6 0 2.9-1.3 2.9-2.9zm21.8 0c0-1.6-1.3-2.8-2.9-2.9-1.6 0-2.8 1.3-2.9 2.9 0 1.6 1.3 2.9 2.9 2.9 1.6 0 2.9-1.3 2.9-2.9zm-218.1-21.8c0-1.6-1.3-2.8-2.8-2.8-1.6 0-2.9 1.3-2.9 2.9s1.3 2.9 2.8 2.8c1.6-.1 2.9-1.3 2.9-2.9zm21.8 0c0-1.6-1.3-2.8-2.9-2.9-1.6 0-2.9 1.3-2.9 2.9s1.3 2.9 2.9 2.9 2.9-1.3 2.9-2.9zm21.8 0c0-1.6-1.3-2.9-2.8-2.9s-2.9 1.3-2.9 2.9 1.3 2.8 2.8 2.8c1.6 0 2.9-1.2 2.9-2.8zm21.8 0c0-1.6-1.3-2.9-2.8-2.8-1.6 0-2.9 1.3-2.9 2.9s1.3 2.8 2.8 2.8 2.9-1.3 2.9-2.9zm21.8 0c0-1.6-1.3-2.9-2.8-2.9-1.6 0-2.8 1.3-2.8 2.8 0 1.6 1.3 2.9 2.9 2.9 1.5 0 2.7-1.2 2.7-2.8zm21.8 0c0-1.6-1.3-2.9-2.8-2.9-1.6 0-2.9 1.3-2.8 2.8 0 1.6 1.3 2.9 2.9 2.9 1.5 0 2.7-1.2 2.7-2.8zm21.8 0c0-1.6-1.3-2.9-2.8-2.9s-2.9 1.3-2.9 2.9 1.3 2.9 2.8 2.8c1.7 0 2.9-1.2 2.9-2.8zm21.9 0c0-1.6-1.3-2.8-2.9-2.9-1.6 0-2.9 1.3-2.9 2.9s1.3 2.9 2.9 2.9c1.6-.1 2.8-1.3 2.9-2.9zm21.8 0c0-1.6-1.3-2.9-2.9-2.9s-2.9 1.3-2.9 2.9 1.3 2.8 2.9 2.8 2.9-1.2 2.9-2.8zm21.8 0c0-1.6-1.3-2.9-2.9-2.9-1.6 0-2.8 1.3-2.8 2.9s1.3 2.9 2.8 2.9 2.9-1.3 2.9-2.9zm21.8 0c0-1.6-1.3-2.8-2.9-2.9-1.6 0-2.9 1.3-2.9 2.9s1.3 2.9 2.9 2.9c1.6-.1 2.9-1.3 2.9-2.9zm-218.1-21.8c0-1.6-1.3-2.9-2.8-2.9-1.6 0-2.9 1.3-2.9 2.9 0 1.6 1.3 2.9 2.9 2.9 1.5-.1 2.8-1.3 2.8-2.9zm21.8 0c0-1.6-1.3-2.9-2.8-2.9-1.6 0-2.9 1.3-2.9 2.9 0 1.6 1.3 2.9 2.9 2.9 1.5-.1 2.8-1.3 2.8-2.9zm21.8 0c0-1.6-1.3-2.9-2.8-2.9s-2.9 1.3-2.8 2.9c0 1.6 1.3 2.9 2.8 2.8 1.5 0 2.8-1.3 2.8-2.8zm21.8 0c0-1.6-1.3-2.9-2.8-2.9-1.6 0-2.9 1.3-2.8 2.9 0 1.6 1.3 2.8 2.8 2.8 1.5 0 2.8-1.3 2.8-2.8zm21.8 0c0-1.6-1.3-2.9-2.8-2.9-1.6 0-2.9 1.3-2.8 2.9 0 1.6 1.3 2.8 2.8 2.8 1.5 0 2.8-1.3 2.8-2.8zm21.8 0c0-1.6-1.3-2.9-2.8-2.9-1.6 0-2.9 1.3-2.8 2.9 0 1.6 1.3 2.9 2.9 2.9 1.5-.1 2.7-1.3 2.7-2.9zm21.8 0c0-1.6-1.3-2.9-2.8-2.9-1.6 0-2.9 1.3-2.8 2.9 0 1.6 1.3 2.9 2.8 2.8 1.6 0 2.8-1.3 2.8-2.8zm21.9 0c0-1.6-1.3-2.9-2.8-2.9s-2.9 1.3-2.9 2.9c0 1.6 1.3 2.8 2.8 2.8s2.9-1.3 2.9-2.8zm21.8 0c0-1.6-1.3-2.9-2.9-2.9s-2.9 1.3-2.9 2.9c0 1.6 1.3 2.8 2.9 2.8s2.9-1.3 2.9-2.8zm21.8 0c0-1.6-1.3-2.9-2.9-2.9s-2.8 1.3-2.8 2.9c0 1.6 1.3 2.8 2.8 2.8s2.9-1.3 2.9-2.8zm21.8 0c0-1.6-1.3-2.9-2.8-2.9s-2.9 1.3-2.9 2.9c0 1.6 1.3 2.9 2.9 2.9 1.5-.1 2.8-1.3 2.8-2.9zm-218.1-21.8c0-1.6-1.3-2.9-2.9-2.9-1.6 0-2.8 1.3-2.9 2.9 0 1.6 1.3 2.8 2.9 2.9 1.6-.1 2.9-1.3 2.9-2.9zm21.8 0c0-1.6-1.3-2.9-2.8-2.8-1.6 0-2.9 1.3-2.8 2.8 0 1.6 1.3 2.9 2.8 2.8 1.5 0 2.8-1.2 2.8-2.8zm21.8 0c0-1.6-1.3-2.9-2.8-2.8-1.6 0-2.9 1.3-2.8 2.8 0 1.6 1.3 2.9 2.8 2.8 1.5 0 2.8-1.2 2.8-2.8zm21.8 0c0-1.6-1.3-2.9-2.8-2.8-1.6 0-2.9 1.3-2.8 2.8 0 1.6 1.3 2.9 2.8 2.8 1.5 0 2.8-1.2 2.8-2.8zm21.8 0c0-1.6-1.3-2.8-2.8-2.8-1.6 0-2.9 1.3-2.9 2.9 0 1.6 1.3 2.9 2.8 2.8 1.6-.1 2.9-1.3 2.9-2.9zm21.8 0c0-1.6-1.3-2.9-2.8-2.8-1.6 0-2.8 1.3-2.9 2.9 0 1.6 1.3 2.8 2.8 2.8s2.9-1.3 2.9-2.9zm21.8 0c0-1.6-1.3-2.8-2.9-2.9-1.6 0-2.9 1.3-2.8 2.8 0 1.6 1.3 2.9 2.9 2.9s2.8-1.2 2.8-2.8zm21.9 0c0-1.6-1.3-2.8-2.9-2.9-1.6 0-2.9 1.3-2.9 2.9s1.3 2.8 2.9 2.9c1.6-.1 2.8-1.3 2.9-2.9zm21.8 0c0-1.6-1.3-2.8-2.8-2.8-1.6 0-2.9 1.3-2.9 2.9s1.3 2.8 2.9 2.8 2.8-1.3 2.8-2.9zm21.8 0c0-1.6-1.3-2.9-2.9-2.9-1.6 0-2.8 1.3-2.8 2.9 0 1.6 1.3 2.8 2.8 2.8s2.9-1.2 2.9-2.8zm21.8 0c0-1.6-1.3-2.9-2.9-2.9-1.6 0-2.8 1.3-2.9 2.9 0 1.6 1.3 2.9 2.9 2.9 1.6-.1 2.9-1.3 2.9-2.9zM218.2 418c0-1.6-1.3-2.9-2.9-2.9s-2.8 1.3-2.8 2.8c0 1.6 1.3 2.9 2.9 2.9 1.5 0 2.8-1.3 2.8-2.8zm21.8 0c0-1.6-1.3-2.9-2.9-2.9-1.6 0-2.8 1.3-2.8 2.8 0 1.6 1.3 2.9 2.9 2.9 1.5 0 2.8-1.3 2.8-2.8zm21.8 0c0-1.6-1.3-2.9-2.8-2.9s-2.9 1.3-2.9 2.9c0 1.6 1.3 2.9 2.8 2.8 1.6 0 2.9-1.3 2.9-2.8zm21.8 0c0-1.6-1.3-2.9-2.8-2.9-1.6 0-2.8 1.3-2.8 2.8 0 1.6 1.3 2.9 2.9 2.9 1.4 0 2.7-1.3 2.7-2.8zm21.8 0c0-1.6-1.3-2.9-2.8-2.9-1.6 0-2.9 1.3-2.9 2.9 0 1.6 1.3 2.9 2.9 2.9s2.8-1.4 2.8-2.9zm21.8 0c0-1.6-1.3-2.8-2.8-2.9-1.6 0-2.9 1.3-2.9 2.9 0 1.6 1.3 2.9 2.9 2.9 1.6-.1 2.8-1.4 2.8-2.9zm21.8 0c0-1.6-1.3-2.9-2.8-2.8-1.6 0-2.9 1.3-2.8 2.8 0 1.6 1.3 2.9 2.9 2.9 1.5-.1 2.8-1.4 2.7-2.9zm21.9 0c0-1.6-1.3-2.9-2.9-2.9-1.6 0-2.9 1.3-2.9 2.9 0 1.6 1.3 2.8 2.9 2.9 1.6-.1 2.8-1.4 2.9-2.9zm21.8 0c0-1.6-1.3-2.9-2.9-2.9s-2.9 1.3-2.9 2.8c0 1.6 1.3 2.9 2.9 2.9 1.6 0 2.9-1.3 2.9-2.8zm21.8 0c0-1.6-1.3-2.9-2.9-2.8-1.6 0-2.8 1.3-2.8 2.8s1.3 2.8 2.8 2.8c1.6 0 2.9-1.3 2.9-2.8zm21.8 0c0-1.6-1.3-2.9-2.9-2.9-1.6 0-2.9 1.3-2.9 2.9 0 1.6 1.3 2.8 2.9 2.9 1.6-.1 2.9-1.4 2.9-2.9zm-218.1-21.9c0-1.6-1.3-2.9-2.9-2.9-1.6 0-2.8 1.3-2.8 2.8s1.3 2.9 2.9 2.9c1.5.1 2.8-1.2 2.8-2.8zm21.8 0c0-1.6-1.3-2.9-2.9-2.9-1.6 0-2.9 1.3-2.9 2.9s1.3 2.9 2.9 2.9c1.6 0 2.9-1.3 2.9-2.9zm21.8 0c0-1.6-1.3-2.9-2.8-2.9s-2.8 1.3-2.9 2.9c0 1.6 1.3 2.9 2.9 2.9 1.5 0 2.8-1.3 2.8-2.9zm21.8 0c0-1.6-1.3-2.8-2.8-2.9-1.6 0-2.8 1.3-2.9 2.9 0 1.6 1.3 2.9 2.9 2.9 1.5 0 2.8-1.3 2.8-2.9zm21.8 0c0-1.6-1.3-2.8-2.8-2.8-1.6 0-2.9 1.3-2.9 2.9 0 1.6 1.3 2.9 2.8 2.8 1.6 0 2.9-1.3 2.9-2.9zm21.8 0c0-1.6-1.3-2.8-2.8-2.8-1.6 0-2.9 1.3-2.9 2.9s1.3 2.9 2.8 2.8c1.7 0 2.9-1.3 2.9-2.9zm21.8 0c0-1.6-1.3-2.9-2.8-2.9s-2.9 1.3-2.9 2.9c0 1.6 1.3 2.9 2.8 2.8 1.7.1 2.9-1.2 2.9-2.8zm21.9 0c0-1.6-1.3-2.9-2.8-2.8-1.6 0-2.8 1.3-2.8 2.8 0 1.6 1.3 2.9 2.8 2.8 1.5.1 2.8-1.2 2.8-2.8zm21.8 0c0-1.6-1.3-2.9-2.9-2.9s-2.9 1.3-2.9 2.9c0 1.6 1.3 2.9 2.9 2.9 1.6 0 2.9-1.3 2.9-2.9zm21.8 0c0-1.6-1.3-2.9-2.9-2.9-1.6 0-2.8 1.3-2.8 2.9 0 1.6 1.3 2.8 2.8 2.8 1.6.1 2.9-1.2 2.9-2.8zm21.8 0c0-1.6-1.3-2.9-2.8-2.8-1.6 0-2.8 1.3-2.8 2.8 0 1.6 1.3 2.9 2.8 2.8 1.5.1 2.8-1.2 2.8-2.8zm-218.1-21.8c0-1.6-1.3-2.9-2.9-2.9-1.6 0-2.8 1.3-2.8 2.8 0 1.6 1.3 2.9 2.9 2.9 1.5.1 2.8-1.2 2.8-2.8zm21.8 0c0-1.6-1.3-2.9-2.9-2.9-1.6 0-2.8 1.3-2.8 2.8s1.3 2.9 2.9 2.9c1.5.1 2.8-1.2 2.8-2.8zm21.8 0c0-1.6-1.3-2.9-2.8-2.9s-2.9 1.3-2.9 2.9c0 1.6 1.3 2.9 2.8 2.8 1.6.1 2.9-1.2 2.9-2.8zm21.8 0c0-1.6-1.3-2.9-2.8-2.9-1.6 0-2.9 1.3-2.8 2.8 0 1.6 1.3 2.9 2.9 2.9 1.4.1 2.7-1.2 2.7-2.8zm21.8 0c0-1.6-1.3-2.8-2.8-2.8-1.6 0-2.9 1.3-2.9 2.9s1.3 2.9 2.8 2.8c1.6 0 2.9-1.3 2.9-2.9zm21.8 0c0-1.6-1.3-2.8-2.8-2.8-1.6 0-2.9 1.3-2.9 2.9s1.3 2.9 2.8 2.8c1.7 0 2.9-1.3 2.9-2.9zm21.8 0c0-1.6-1.3-2.9-2.8-2.9s-2.9 1.3-2.9 2.9 1.3 2.9 2.8 2.8c1.7.1 2.9-1.2 2.9-2.8zm21.9 0c0-1.6-1.3-2.8-2.8-2.8s-2.9 1.3-2.9 2.9c0 1.6 1.3 2.8 2.8 2.8 1.6 0 2.9-1.3 2.9-2.9zm21.8 0c0-1.6-1.3-2.9-2.8-2.8-1.6 0-2.9 1.3-2.9 2.9s1.3 2.8 2.9 2.8 2.8-1.3 2.8-2.9zm21.8 0c0-1.6-1.3-2.9-2.9-2.9-1.6 0-2.8 1.3-2.8 2.9 0 1.6 1.3 2.8 2.8 2.8 1.6.1 2.9-1.2 2.9-2.8zm21.8 0c0-1.6-1.3-2.9-2.9-2.9-1.6 0-2.8 1.3-2.8 2.8s1.3 2.9 2.9 2.9c1.5.1 2.8-1.2 2.8-2.8zm-218.1-21.8c0-1.6-1.3-2.9-2.9-2.9s-2.9 1.3-2.9 2.8 1.3 2.9 2.9 2.9c1.6.1 2.8-1.2 2.9-2.8zm21.8 0c0-1.6-1.3-2.8-2.9-2.8s-2.9 1.3-2.9 2.8 1.3 2.9 2.9 2.9c1.6 0 2.9-1.3 2.9-2.9zm21.8 0c0-1.6-1.3-2.8-2.8-2.8s-2.9 1.3-2.9 2.8 1.3 2.8 2.9 2.9c1.5 0 2.8-1.3 2.8-2.9zm21.8 0c0-1.6-1.3-2.8-2.8-2.8-1.6 0-2.9 1.3-2.9 2.8s1.3 2.9 2.9 2.9c1.5 0 2.8-1.3 2.8-2.9zm21.8 0c0-1.6-1.3-2.8-2.8-2.8-1.6 0-2.8 1.3-2.8 2.8s1.3 2.8 2.8 2.8c1.5.1 2.8-1.2 2.8-2.8zm21.8 0c0-1.6-1.3-2.8-2.8-2.8-1.6 0-2.8 1.3-2.8 2.8s1.3 2.9 2.8 2.8c1.6.1 2.8-1.2 2.8-2.8zm21.8 0c0-1.6-1.3-2.8-2.8-2.8s-2.8 1.3-2.9 2.8c0 1.6 1.3 2.9 2.9 2.9 1.6 0 2.8-1.3 2.8-2.9zm21.9 0c0-1.6-1.3-2.8-2.9-2.8-1.6 0-2.9 1.3-2.9 2.8s1.3 2.8 2.9 2.9c1.6 0 2.9-1.3 2.9-2.9zm21.8 0c0-1.6-1.3-2.8-2.9-2.8s-2.9 1.3-2.9 2.8 1.3 2.9 2.9 2.9c1.6 0 2.9-1.3 2.9-2.9zm21.8 0c0-1.6-1.3-2.8-2.9-2.8s-2.8 1.3-2.8 2.8 1.3 2.9 2.8 2.9 2.9-1.3 2.9-2.9zm21.8 0c0-1.6-1.3-2.9-2.9-2.9s-2.9 1.3-2.9 2.8 1.3 2.9 2.9 2.9c1.6.1 2.9-1.2 2.9-2.8zm-218.1-21.8c0-1.6-1.3-2.8-2.9-2.9-1.6 0-2.9 1.3-2.9 2.9 0 1.6 1.3 2.9 2.9 2.9 1.6 0 2.9-1.3 2.9-2.9zm21.8 0c0-1.6-1.3-2.8-2.9-2.9-1.6 0-2.9 1.3-2.9 2.9s1.3 2.8 2.9 2.9c1.6 0 2.9-1.3 2.9-2.9zm21.8 0c0-1.6-1.3-2.9-2.8-2.9s-2.9 1.3-2.9 2.9 1.3 2.8 2.9 2.9c1.5 0 2.8-1.3 2.8-2.9zm21.8 0c0-1.6-1.3-2.8-2.8-2.9-1.6 0-2.9 1.3-2.9 2.9s1.3 2.8 2.9 2.9c1.5 0 2.8-1.3 2.8-2.9zm21.8 0c0-1.6-1.3-2.9-2.8-2.8-1.6 0-2.9 1.3-2.8 2.8 0 1.6 1.3 2.9 2.8 2.8 1.6 0 2.8-1.2 2.8-2.8zm21.8 0c0-1.6-1.3-2.9-2.8-2.9-1.6 0-2.8 1.3-2.9 2.9 0 1.6 1.3 2.9 2.9 2.9 1.6 0 2.8-1.3 2.8-2.9zm21.8 0c0-1.6-1.3-2.9-2.8-2.9s-2.8 1.3-2.9 2.9c0 1.6 1.3 2.9 2.9 2.9 1.6 0 2.8-1.3 2.8-2.9zm21.9 0c0-1.6-1.3-2.9-2.8-2.8-1.6 0-2.9 1.3-2.8 2.8 0 1.6 1.3 2.9 2.8 2.8 1.5 0 2.8-1.2 2.8-2.8zm21.8 0c0-1.6-1.3-2.8-2.8-2.8-1.6 0-2.9 1.3-2.9 2.8s1.3 2.9 2.9 2.8c1.5 0 2.8-1.2 2.8-2.8zm21.8 0c0-1.6-1.3-2.9-2.9-2.9-1.6 0-2.8 1.3-2.8 2.9s1.3 2.9 2.8 2.8c1.6 0 2.9-1.2 2.9-2.8zm21.8 0c0-1.6-1.3-2.9-2.8-2.8-1.6 0-2.9 1.3-2.8 2.8 0 1.6 1.3 2.8 2.8 2.8s2.8-1.2 2.8-2.8zm-218.1-21.8c0-1.6-1.3-2.8-2.8-2.8-1.6 0-2.9 1.3-2.9 2.9 0 1.6 1.3 2.8 2.8 2.8 1.6-.1 2.9-1.3 2.9-2.9zm21.8 0c0-1.6-1.3-2.8-2.9-2.9-1.6 0-2.9 1.3-2.9 2.9 0 1.6 1.3 2.8 2.9 2.8 1.6 0 2.9-1.2 2.9-2.8zm21.8 0c0-1.6-1.3-2.8-2.8-2.8s-2.8 1.3-2.9 2.9c0 1.6 1.3 2.8 2.9 2.8 1.5 0 2.8-1.3 2.8-2.9zm21.8 0c0-1.6-1.3-2.9-2.8-2.9-1.6 0-2.9 1.3-2.9 2.9 0 1.6 1.3 2.8 2.9 2.8 1.5 0 2.8-1.2 2.8-2.8zm21.8 0c0-1.6-1.3-2.9-2.8-2.9-1.6 0-2.8 1.3-2.8 2.8 0 1.6 1.3 2.8 2.9 2.8 1.5.1 2.7-1.1 2.7-2.7zm21.8 0c0-1.6-1.3-2.9-2.8-2.9-1.6 0-2.8 1.3-2.9 2.9 0 1.6 1.3 2.8 2.9 2.8 1.6 0 2.8-1.2 2.8-2.8zm21.8 0c0-1.6-1.3-2.9-2.8-2.9s-2.8 1.3-2.9 2.9c0 1.6 1.3 2.8 2.9 2.8 1.6 0 2.9-1.2 2.8-2.8zm21.9 0c0-1.6-1.3-2.8-2.8-2.8s-2.9 1.3-2.9 2.9c0 1.6 1.3 2.8 2.8 2.8 1.6-.1 2.9-1.3 2.9-2.9zm21.8 0c0-1.6-1.3-2.9-2.9-2.9s-2.9 1.3-2.9 2.9c0 1.6 1.3 2.8 2.9 2.8 1.6 0 2.9-1.2 2.9-2.8zm21.8 0c0-1.6-1.3-2.9-2.9-2.9-1.6 0-2.8 1.3-2.8 2.9s1.3 2.8 2.8 2.8 2.9-1.2 2.9-2.8zm21.8 0c0-1.6-1.3-2.8-2.9-2.9-1.6 0-2.9 1.3-2.9 2.9 0 1.6 1.3 2.8 2.9 2.8 1.6 0 2.9-1.2 2.9-2.8zm-218.1-21.8c0-1.6-1.3-2.8-2.8-2.8-1.6 0-2.9 1.3-2.9 2.9 0 1.6 1.3 2.8 2.9 2.8 1.5-.1 2.8-1.3 2.8-2.9zm21.8 0c0-1.6-1.3-2.9-2.8-2.8-1.6 0-2.9 1.3-2.9 2.9 0 1.6 1.3 2.8 2.9 2.8 1.5-.1 2.8-1.3 2.8-2.9zm21.8 0c0-1.6-1.3-2.8-2.8-2.8s-2.9 1.3-2.8 2.8c0 1.6 1.3 2.8 2.8 2.8s2.8-1.3 2.8-2.8zm21.8 0c0-1.6-1.3-2.9-2.8-2.9-1.6 0-2.9 1.3-2.9 2.9 0 1.6 1.3 2.8 2.9 2.8 1.5 0 2.8-1.3 2.8-2.8zm21.8 0c0-1.6-1.3-2.9-2.8-2.9-1.6 0-2.8 1.3-2.8 2.8 0 1.6 1.3 2.8 2.8 2.8 1.5.1 2.8-1.2 2.8-2.7zm21.8 0c0-1.6-1.3-2.9-2.8-2.9-1.6 0-2.8 1.3-2.8 2.8s1.3 2.8 2.8 2.8 2.8-1.2 2.8-2.7zm21.8 0c0-1.6-1.3-2.8-2.8-2.8-1.6 0-2.9 1.3-2.8 2.8 0 1.6 1.3 2.8 2.8 2.8s2.8-1.3 2.8-2.8zm21.9 0c0-1.6-1.3-2.8-2.9-2.9-1.6 0-2.8 1.3-2.9 2.9 0 1.6 1.3 2.8 2.9 2.8s2.9-1.3 2.9-2.8zm21.8 0c0-1.6-1.3-2.9-2.9-2.9s-2.9 1.3-2.9 2.9c0 1.6 1.3 2.8 2.9 2.8 1.6 0 2.9-1.3 2.9-2.8zm21.8 0c0-1.6-1.3-2.8-2.9-2.8s-2.8 1.3-2.8 2.8 1.3 2.8 2.8 2.8c1.6 0 2.9-1.3 2.9-2.8zm21.8 0c0-1.6-1.3-2.8-2.8-2.8-1.6 0-2.9 1.3-2.9 2.9 0 1.6 1.3 2.8 2.9 2.8 1.5-.1 2.8-1.3 2.8-2.9z" fill="#fff" opacity=".4"/></svg>